<svg xmlns="http://www.w3.org/2000/svg" width="60" height="60"><g data-name="Group 3"><g data-name="Group 1"><path data-name="Path 1" d="M30 0L0 15.242v6.532L30 6.532l30 15.242v-6.532z" fill="#0a055f"/><path data-name="Path 2" d="M5.081 28.31h7.258v14.758h5.081V23.71H0v19.355h5.081z" fill="#0a055f"/><path data-name="Path 3" d="M19.839 23.71v19.355h7.742l6.532-15.371v15.371h5.081V23.71h-7.742L24.92 39.081V23.71z" fill="#0a055f"/><path data-name="Path 4" d="M41.613 23.71v19.355h5.081v-6.209l1.5-1.476 5.762 7.685h6.048l-8.338-11.117 8.338-8.238h-6.532l-6.774 7.258V23.71z" fill="#0a055f"/><path data-name="Path 5" d="M51.411 50.06l-1.153 3.407h2.306z" fill="#ff4114"/><path data-name="Path 6" d="M17.782 51.351a1 1 0 0 0-1.129-1.028h-2.137v2.057h2.137a1 1 0 0 0 1.129-1.029z" fill="#ff4114"/></g><path data-name="Rectangle 1" fill="#ff4114" d="M0 45.484h60V60H0z"/><g data-name="Group 2" fill="#fff"><path data-name="Path 7" d="M11.061 48.633v1.548h-3.7v1.448a8.959 8.959 0 0 1 1.024-.06 4.069 4.069 0 0 1 2.375.686 2.36 2.36 0 0 1 .976 2.012 2.458 2.458 0 0 1-.8 1.9 5.24 5.24 0 0 1-3.423.976 14.218 14.218 0 0 1-2.048-.125v-8.385zm-3.714 7.036a4.643 4.643 0 0 0 .738.048 1.856 1.856 0 0 0 1.238-.436 1.283 1.283 0 0 0 .411-.976 1.145 1.145 0 0 0-.452-.951 2.091 2.091 0 0 0-1.262-.375 4.369 4.369 0 0 0-.673.048z"/><path data-name="Path 8" d="M14.165 48.746a15.5 15.5 0 0 1 2.573-.174 4.048 4.048 0 0 1 2.573.674 2.463 2.463 0 0 1 .9 1.947 2.7 2.7 0 0 1-.774 2 3.9 3.9 0 0 1-2.738.887 4.922 4.922 0 0 1-.649-.036v3.012h-1.885v-8.311zm1.887 3.823a2.984 2.984 0 0 0 .637.048c1.012 0 1.637-.512 1.637-1.375 0-.774-.536-1.238-1.488-1.238a3.072 3.072 0 0 0-.786.076z"/><path data-name="Path 9" d="M30.282 52.758c0 2.762-1.673 4.436-4.137 4.436-2.5 0-3.96-1.887-3.96-4.286a4.077 4.077 0 0 1 4.1-4.411c2.583-.001 3.997 1.935 3.997 4.261zm-6.084.109c0 1.649.774 2.81 2.048 2.81s2.024-1.226 2.024-2.863c0-1.512-.726-2.811-2.036-2.811-1.294.005-2.04 1.227-2.04 2.865z"/><path data-name="Path 10" d="M34.589 48.633v3.5h.161l2.323-3.5h2.311l-2.936 3.738a2.7 2.7 0 0 1 1.923 2.037 23.067 23.067 0 0 0 .976 2.649h-2.045a12.939 12.939 0 0 1-.649-1.851c-.286-.952-.673-1.674-1.7-1.674h-.363v3.524h-1.888v-8.423z"/><path data-name="Path 11" d="M46.448 53.492h-3.1v2h3.46v1.56h-5.376v-8.423h5.2v1.561H43.35v1.75h3.1z"/><path data-name="Path 12" d="M49.278 48.746a15.507 15.507 0 0 1 2.573-.174 4.051 4.051 0 0 1 2.573.674 2.462 2.462 0 0 1 .9 1.947 2.7 2.7 0 0 1-.774 2 3.9 3.9 0 0 1-2.738.887 4.918 4.918 0 0 1-.649-.036v3.012h-1.885v-8.311zm1.888 3.823a2.982 2.982 0 0 0 .636.048c1.013 0 1.637-.512 1.637-1.375 0-.774-.536-1.238-1.488-1.238a3.07 3.07 0 0 0-.786.076v2.488z"/></g></g></svg>