<svg xmlns="http://www.w3.org/2000/svg" width="80" height="77" fill="none"><rect id="backgroundrect" width="100%" height="100%" x="0" y="0" fill="none" stroke="none" class="" style=""/><defs><linearGradient id="paint0_linear" x1="0.612329891721757" y1="0.3679579884974846" x2="0.717307583202858" y2="-0.009399391366755657"><stop stop-color="#E2A41A"/><stop offset="1" stop-color="#FAE100"/></linearGradient><linearGradient id="paint1_linear" x1="0.6644254083824662" y1="0.4997250080108643" x2="1.008483111980554" y2="0.4997250080108643"><stop stop-color="#E2A41A"/><stop offset="1" stop-color="#FAE100"/></linearGradient><linearGradient id="paint2_linear" x1="0.60317296473161" y1="0.6618537596076591" x2="0.8070108732068118" y2="0.8497725052509622"><stop stop-color="#E2A41A"/><stop offset="1" stop-color="#FAE100"/></linearGradient><linearGradient id="paint3_linear" x1="0.4200973750202589" y1="0.621265029418554" x2="0.33403612232338964" y2="1.0241566847799672"><stop stop-color="#E2A41A"/><stop offset="1" stop-color="#FAE100"/></linearGradient><linearGradient id="paint4_linear" x1="0.3253671046103224" y1="0.5010474245845737" x2="0.035879849071871965" y2="0.5010474245845737"><stop stop-color="#E2A41A"/><stop offset="1" stop-color="#FAE100"/></linearGradient><linearGradient id="paint5_linear" x1="0.38131942609781805" y1="0.3379666106729813" x2="0.16804460073954927" y2="0.15321508924071525"><stop stop-color="#E2A41A"/><stop offset="1" stop-color="#FAE100"/></linearGradient><linearGradient id="paint6_linear" x1="0.5010898912083703" y1="0.3973494145416486" x2="0.5010898912083703" y2="0.003614483026378516"><stop stop-color="#E2A41A"/><stop offset="1" stop-color="#FAE100"/></linearGradient><linearGradient id="paint7_linear" x1="0.3960037995269494" y1="0.25781953230279137" x2="0.07849291840202129" y2="0.014010026248751738"><stop stop-color="#E2A41A"/><stop offset="1" stop-color="#FAE100"/></linearGradient><linearGradient id="paint8_linear" x1="0.43586116366916233" y1="0.7085061422961313" x2="0.13750004768371582" y2="1.0365144111674083"><stop stop-color="#E2A41A"/><stop offset="1" stop-color="#FAE100"/></linearGradient><linearGradient id="paint9_linear" x1="0.5004097672503257" y1="0.6376276205134925" x2="0.5004097672503257" y2="1.0030029569056096"><stop stop-color="#E2A41A"/><stop offset="1" stop-color="#FAE100"/></linearGradient><linearGradient id="paint10_linear" x1="0.6543971600522374" y1="0.7185595788574486" x2="0.9720202037734539" y2="0.9268420363550137"><stop stop-color="#E2A41A"/><stop offset="1" stop-color="#FAE100"/></linearGradient><linearGradient id="paint11_linear" x1="0.3704188437234556" y1="0.4623921712239583" x2="1.0377487217270551" y2="0.27301960365445005"><stop stop-color="#E2A41A"/><stop offset="1" stop-color="#FAE100"/></linearGradient><linearGradient id="paint12_linear" x1="0.5016668109793055" y1="0.9049038819071691" x2="0.5016668109793055" y2="-0.030199174273089508"><stop stop-color="#E2A41A"/><stop offset="1" stop-color="#FAE100"/></linearGradient><clipPath id="clip0"><path fill="#fff" d="M0 0h326.3v76.6H0z" id="svg_1"/></clipPath></defs><g class="currentLayer" style=""><title>Layer 1</title><g clip-path="url(#clip0)" id="svg_2"><path d="M102.7 31.8h-4v10.6c0 .7-.6 1.2-1.2 1.2h-3.9c-.7 0-1.2-.6-1.2-1.2V15.7c0-.7.6-1.2 1.2-1.2h3.9c.7 0 1.2.6 1.2 1.2v10.4h4c1.2-6.9 6.7-12.1 14.1-12.1 8.8 0 14.9 7.4 14.1 16.6-.6 7.7-6.9 13.8-14.6 13.6-7.3-.2-12.5-5.4-13.6-12.4zm21.6-2.8c0-5.1-3.1-9.2-7.6-9.2s-7.6 4-7.6 9.2c0 5.2 3.1 9.3 7.6 9.3 4.6 0 7.6-4 7.6-9.3zM155 43.6h-3.9c-.7 0-1.2-.6-1.2-1.2v-7.3h-7.8v7.3c0 .7-.6 1.2-1.2 1.2H137c-.7 0-1.2-.6-1.2-1.2V22.5c0-.7.6-1.2 1.2-1.2h3.9c.7 0 1.2.6 1.2 1.2v7.4h7.8v-7.4c0-.7.6-1.2 1.2-1.2h3.9c.7 0 1.2.6 1.2 1.2v19.9c.1.7-.5 1.2-1.2 1.2zm26.5 0h-3.6c-.7 0-1.2-.6-1.2-1.2V30.6l-8.4 12.5c-.2.3-.6.6-1 .6h-4.1c-.7 0-1.2-.6-1.2-1.2v-20c0-.7.6-1.2 1.2-1.2h3.6c.7 0 1.2.6 1.2 1.2v11.8l8.4-12.5c.2-.3.6-.6 1-.6h4.1c.7 0 1.2.6 1.2 1.2v19.9c.1.8-.5 1.3-1.2 1.3zm8.2-22.3h3.9c.7 0 1.2.6 1.2 1.2v7.9l7.6-8.8c.2-.3.6-.4.9-.4h4c1.1 0 1.6 1.3.9 2.1l-6.4 7.1 7.9 11.2c.6.8 0 2-1 2h-4.5c-.4 0-.8-.2-1-.5l-5.6-8-2.9 3.1v4.1c0 .7-.6 1.2-1.2 1.2h-3.9c-.7 0-1.2-.6-1.2-1.2V22.5c.1-.7.6-1.2 1.3-1.2zm21.9 11.2c0-6.4 5.2-11.6 12.1-11.6 6.9 0 12.1 5.1 12.1 11.6 0 6.4-5.2 11.6-12.1 11.6-7 0-12.1-5.1-12.1-11.6zm17.9 0c0-3.3-2.4-6.2-5.9-6.2-3.6 0-5.8 2.8-5.8 6.2 0 3.3 2.4 6.2 5.9 6.2 3.7 0 5.8-2.8 5.8-6.2zm12-11.2h4.5c.4 0 .8.2 1 .6l5.7 8.8 5.8-8.8c.2-.4.6-.6 1-.6h4.5c.7 0 1.2.6 1.2 1.2v19.9c0 .7-.6 1.2-1.2 1.2h-3.9c-.7 0-1.2-.6-1.2-1.2V30.2l-5.2 7.7c-.5.7-1.6.7-2.1 0l-5.1-7.5v12.1c0 .7-.6 1.2-1.2 1.2h-3.8c-.7 0-1.2-.6-1.2-1.2v-20c-.1-.7.5-1.2 1.2-1.2z" fill="#353847" id="svg_3"/><path d="M276.8 39.1c0-.4.2-.7.5-1l9.3-7.6c3.6-3 5.1-4.6 5.1-7 0-2.5-1.6-3.8-3.9-3.8-2 0-3.4 1-5.2 3-.4.5-1.2.6-1.7.1l-2.6-2.1c-.5-.4-.6-1.2-.2-1.7 2.6-3.3 5.4-5.1 10.1-5.1 6.1 0 10.1 3.5 10.1 9.1 0 4.9-2.5 7.3-7.7 11.3l-4.8 3.7h11.5c.7 0 1.2.6 1.2 1.2v3.1c0 .7-.6 1.2-1.2 1.2H278c-.7 0-1.2-.6-1.2-1.2v-3.2zm39.4-1.8h-13.3c-.6 0-1.1-.4-1.2-1l-.7-3c-.1-.4 0-.8.3-1.1l15.2-17.7c.2-.3.6-.4.9-.4h3.6c.7 0 1.2.6 1.2 1.2V32h2.7c.7 0 1.2.6 1.2 1.2v2.7c0 .7-.6 1.2-1.2 1.2h-2.7v5.1c0 .7-.6 1.2-1.2 1.2h-3.6c-.7 0-1.2-.6-1.2-1.2v-4.9zm0-5.2V23l-7.8 9.1h7.8z" fill="#8B92A4" id="svg_4"/><path d="M96 67.1v-3.3c-.5.5-1.2.8-2 .8-1.1 0-1.9-.4-2.6-1.2-.7-.8-1-1.9-1-3.3s.3-2.5 1-3.3c.7-.8 1.5-1.2 2.6-1.2.8 0 1.4.3 2 .9v-3.6h2v3.6c.6-.6 1.2-.9 2-.9 1.1 0 1.9.4 2.6 1.2.7.8 1 1.9 1 3.3s-.3 2.5-1 3.3c-.7.8-1.5 1.2-2.6 1.2-.8 0-1.5-.3-2-.8v3.3h-2zm-1.4-4.2c.5 0 1-.2 1.4-.6v-4.5c-.4-.4-.9-.6-1.4-.6-.7 0-1.2.3-1.6.8-.4.5-.5 1.2-.5 2.1 0 .9.2 1.6.5 2.1.3.4.9.7 1.6.7zm4.8 0c.7 0 1.2-.2 1.6-.7.4-.5.5-1.2.5-2.1 0-.9-.2-1.6-.5-2.1-.4-.5-.9-.8-1.6-.8-.5 0-.9.2-1.4.6v4.5c.4.4.9.6 1.4.6zm6.4 1.5v-8.8h2v5.9c1.8-2.6 3.2-4.6 4.2-5.9h1.9v8.8H112v-5.9l-4.2 5.9h-2zm10.8 0v-8.8h2v3.6h3.9v-3.6h2v8.8h-2v-3.5h-3.9v3.5h-2zm18 0h-2v-1.1c-.7.8-1.7 1.3-2.8 1.3-.9 0-1.6-.2-2.2-.7-.6-.5-.9-1.2-.9-2 0-.9.3-1.7 1-2.1.7-.5 1.5-.7 2.6-.7.9 0 1.7.1 2.4.4v-.2c0-.6-.2-1.1-.6-1.4-.4-.3-.9-.5-1.6-.5-.8 0-1.6.2-2.5.5l-.5-1.6c1.1-.5 2.2-.7 3.3-.7 1.3 0 2.2.3 2.9 1 .6.6 1 1.6 1 2.7v5.1h-.1zm-2-3.2v-.5c-.6-.2-1.3-.3-2-.3-.6 0-1.1.1-1.5.4-.4.2-.5.6-.5 1s.2.7.5.9c.3.2.7.3 1.2.3.7 0 1.2-.2 1.7-.5.4-.3.6-.7.6-1.3zm4.6 3.2v-8.8h2v3.6h3.9v-3.6h2v8.8h-2v-3.5h-3.9v3.5h-2zm14.6.2c-1.3 0-2.4-.4-3.2-1.3-.9-.9-1.3-2-1.3-3.2 0-1.3.4-2.3 1.3-3.2.9-.9 2-1.3 3.2-1.3 1.4 0 2.6.5 3.5 1.5l-1.2 1.3c-.7-.7-1.5-1.1-2.3-1.1-.7 0-1.3.3-1.8.8s-.7 1.2-.7 2 .2 1.5.7 2c.5.5 1.1.8 1.9.8.8 0 1.6-.4 2.3-1.1l1.2 1.2c-.5.5-1 .9-1.6 1.2-.5.3-1.2.4-2 .4zm9.7 0c-1.3 0-2.4-.4-3.3-1.3-.9-.9-1.3-2-1.3-3.2 0-1.3.4-2.4 1.3-3.2.9-.9 2-1.3 3.3-1.3 1.3 0 2.4.4 3.3 1.3.9.9 1.3 2 1.3 3.3 0 1.3-.4 2.3-1.3 3.2-.8.8-1.9 1.2-3.3 1.2zm.1-1.7c.8 0 1.4-.3 1.9-.8s.7-1.2.7-2-.3-1.5-.8-2-1.2-.8-1.9-.8c-.8 0-1.4.3-1.9.8s-.7 1.2-.7 2 .3 1.4.8 2c.5.5 1.1.8 1.9.8zm6.9 1.5v-8.8h4.5c.9 0 1.6.2 2.1.6.5.4.8.9.8 1.6 0 .9-.5 1.6-1.4 2 1.2.3 1.8 1.1 1.8 2.2 0 .7-.3 1.3-.9 1.7-.6.4-1.4.6-2.4.6h-4.5v.1zm2-5.1h2.1c.4 0 .7-.1 1-.3.2-.2.3-.5.3-.8 0-.3-.1-.5-.3-.7-.2-.2-.5-.3-1-.3h-2.1v2.1zm0 3.5h2.3c.5 0 .8-.1 1.1-.3.3-.2.4-.5.4-.8 0-.3-.1-.6-.4-.8-.3-.2-.7-.3-1.2-.3h-2.2v2.2zm8 1.6v-8.8h2v3.1h1.8c1 0 1.9.2 2.5.7.6.5 1 1.2 1 2.1 0 .9-.3 1.6-.9 2.1-.6.5-1.4.8-2.4.8h-4zm2-1.6h1.7c.5 0 .9-.1 1.2-.3.3-.2.4-.5.4-1 0-.4-.1-.7-.4-.9-.3-.2-.7-.3-1.2-.3h-1.7v2.5zm6.7 1.6v-8.8h2v8.8h-2zm4.7 0v-8.8h2v5.9c1.8-2.6 3.2-4.6 4.2-5.9h1.9v8.8h-2v-5.9l-4.2 5.9h-1.9zm5.8-10.4c-.5.4-1 .6-1.7.6s-1.3-.2-1.7-.6c-.5-.4-.8-1-.9-1.7l1.2-.2c.2.8.7 1.1 1.4 1.1s1.1-.4 1.4-1.1l1.2.2c-.2.7-.5 1.3-.9 1.7zm10.1 10.4v-8.8h2l2.7 4.1 2.8-4.1h2v8.8h-2v-5.9l-2.8 3.9-2.7-3.9v5.8h-2v.1zm19.6 0h-2v-1.1c-.7.8-1.7 1.3-2.8 1.3-.9 0-1.6-.2-2.2-.7-.6-.5-.9-1.2-.9-2 0-.9.3-1.7 1-2.1.7-.5 1.5-.7 2.6-.7.9 0 1.7.1 2.4.4v-.2c0-.6-.2-1.1-.6-1.4-.4-.3-.9-.5-1.6-.5-.8 0-1.6.2-2.5.5l-.5-1.6c1.1-.5 2.2-.7 3.3-.7 1.3 0 2.2.3 2.9 1 .6.6 1 1.6 1 2.7v5.1h-.1zm-1.9-3.2v-.5c-.6-.2-1.3-.3-2-.3-.6 0-1.1.1-1.5.4-.4.2-.5.6-.5 1s.2.7.5.9c.3.2.7.3 1.2.3.7 0 1.2-.2 1.7-.5.3-.3.6-.7.6-1.3zm4.5 5.9V55.6h2v1.5c.8-1.1 1.8-1.6 3-1.6 1.1 0 2.1.4 2.9 1.2.8.8 1.2 1.9 1.2 3.3s-.4 2.5-1.2 3.3c-.8.8-1.8 1.2-2.9 1.2-1.2 0-2.2-.5-3-1.5v4h-2v.1zm4.5-4.2c.7 0 1.3-.3 1.8-.8s.7-1.2.7-2.1c0-.8-.2-1.5-.7-2-.5-.5-1.1-.8-1.8-.8s-1.3.3-1.8.8-.8 1.2-.8 2 .3 1.5.8 2c.5.6 1.1.9 1.8.9zm6.8 1.5v-8.8h2v4.2l3.8-4.2h2.4l-3.4 3.7 3.7 5.1h-2.4l-2.7-3.6-1.4 1.5v2.1h-2zm14.1.2c-1.3 0-2.4-.4-3.2-1.3-.9-.9-1.3-2-1.3-3.3 0-1.3.4-2.4 1.2-3.2.8-.9 1.8-1.3 3.1-1.3s2.4.5 3.1 1.4c.7.9 1.1 2 1.1 3.4v.6H253c.1.7.4 1.2.8 1.6.5.4 1 .6 1.7.6.9 0 1.7-.3 2.4-1l1.2 1c-1 1-2.2 1.5-3.7 1.5zm-2.5-5.2h4.5c-.1-.7-.3-1.2-.7-1.7-.4-.4-.9-.6-1.5-.6s-1.1.2-1.5.6c-.5.5-.7 1-.8 1.7zm10.6 5v-7h-2.8v-1.7h7.7v1.7h-2.8v7h-2.1z" fill="#353847" id="svg_5"/><path d="M16 38.3L31.9 9.9c1.7-3 4.9-4.9 8.3-4.9h15.2c11.2 0 18.2 12 12.8 21.8l-6.4 11.5H16z" fill="url(#paint0_linear)" id="svg_6"/><path d="M27.5 18.5l32.5-.4c3.5 0 6.7 1.8 8.4 4.8L76 36c5.6 9.7-1.3 21.8-12.5 21.9l-13.1.2-22.9-39.6z" fill="url(#paint1_linear)" id="svg_7"/><path d="M50.4 18.5l16.6 28c1.8 3 1.8 6.7.1 9.7l-7.6 13.2c-5.6 9.7-19.5 9.8-25.2.2l-6.7-11.3 22.8-39.8z" fill="url(#paint2_linear)" id="svg_8"/><path d="M61.8 38.3L45.9 66.6c-1.7 3-4.9 4.9-8.3 4.9H22.3c-11.2 0-18.2-12-12.8-21.8L16 38.3h45.8z" fill="url(#paint3_linear)" id="svg_9"/><path d="M44.6 58.4l-26.6.1c-3.5 0-6.7-1.8-8.4-4.8L2 40.5c-5.6-9.7 1.3-21.8 12.5-21.9l13.1-.2 17 40z" fill="url(#paint4_linear)" id="svg_10"/><path d="M27.5 58.1l-16.6-28c-1.8-3-1.8-6.7-.1-9.7l7.6-13.2C24-2.4 38-2.5 43.7 7.2l6.7 11.3-22.9 39.6z" fill="url(#paint5_linear)" id="svg_11"/><path d="M38.9 38.3l13.8-16-9-15.1c-.5-.8-1-1.5-1.5-2.1h-1.9C36.8 5.1 33.7 7 32 10L16 38.3h22.9z" fill="url(#paint6_linear)" id="svg_12"/><path d="M27.5 58.1L39 38.2l-5.4-20-19.1.4c-.9 0-1.8.1-2.7.3l-.9 1.6c-1.7 3-1.7 6.7.1 9.7l16.5 27.9z" fill="url(#paint7_linear)" id="svg_13"/><path d="M44.6 58.4l-5.5-20.1-21-3.8-8.5 15.3c-.4.7-.7 1.5-1 2.2l1 1.8c1.7 3 4.9 4.8 8.4 4.8l26.6-.2z" fill="url(#paint8_linear)" id="svg_14"/><path d="M38.9 38.3L25.2 54.5l9 14.9c.5.8 1 1.5 1.5 2.1h1.9c3.5 0 6.6-1.9 8.3-4.9l15.9-28.4H38.9v.1z" fill="url(#paint9_linear)" id="svg_15"/><path d="M67 46.4L52.7 22.3l-13.8 16 5 20.1 19.6-.4c.9 0 1.7-.1 2.6-.3l.9-1.6c1.8-3 1.8-6.7 0-9.7z" fill="url(#paint10_linear)" id="svg_16"/><path d="M68.3 26.8c.4-.8.8-1.6 1.1-2.4l-.9-1.6c-1.7-3-4.9-4.8-8.4-4.8l-9.8.2 6.5 10.9 2.4 14.4 9.1-16.7z" fill="url(#paint11_linear)" id="svg_17"/><path d="M44.6 18.2H33.2c-3.7 0-7 2-8.9 5.1l-5.7 9.8c-1.8 3.2-1.8 7.1 0 10.3l5.7 9.8c1.8 3.2 5.2 5.1 8.9 5.1h11.4c3.7 0 7-2 8.9-5.1l5.7-9.8c1.8-3.2 1.8-7.1 0-10.3l-5.7-9.8c-1.9-3.1-5.3-5.1-8.9-5.1z" fill="#fff" id="svg_18"/><path d="M38.3 51.2c-6.8-.3-12-6.2-12-12.9v-9.6c0-.4.4-.8.8-.8h4.5c.4 0 .8.4.8.8v9.7c0 3.5 2.6 6.5 6.1 6.7 3.8.3 6.9-2.8 6.9-6.5v-10c0-.4.4-.8.8-.8h4.5c.4 0 .8.4.8.8v10c0 7.2-6 12.9-13.2 12.6z" fill="url(#paint12_linear)" id="svg_19"/></g></g></svg>